<?xml version="1.0" standalone="no"?><!DOCTYPE svg PUBLIC "-//W3C//DTD SVG 1.1//EN" "http://www.w3.org/Graphics/SVG/1.1/DTD/svg11.dtd"><svg t="1690809240219" class="icon" viewBox="0 0 1024 1024" version="1.1" xmlns="http://www.w3.org/2000/svg" p-id="1319" xmlns:xlink="http://www.w3.org/1999/xlink" width="200" height="200"><path d="M434.453333 240.693333a32 32 0 0 0-9.386666-22.666666l-113.12-113.12a64 64 0 0 0-90.666667 0l-113.013333 113.12a32 32 0 0 0 45.28 45.28L266.666667 150.186667l113.12 113.12a32 32 0 0 0 54.666666-22.613334zM925.12 783.306667a32 32 0 0 0-54.666667-22.613334L757.333333 873.813333l-113.12-113.12a32 32 0 1 0-45.28 45.28l113.12 113.12a64 64 0 0 0 90.666667 0L915.733333 805.973333a32 32 0 0 0 9.386667-22.666666z" fill="#fff" p-id="1320"></path><path d="M480 117.973333a32 32 0 0 1 32-32L586.666667 85.973333a202.666667 202.666667 0 0 1 202.666666 202.666667l0 597.333333a32 32 0 0 1-64 0l0-597.333333a138.666667 138.666667 0 0 0-138.666666-138.666667l-74.666667-1e-8a32 32 0 0 1-32-31.99999999zM234.666667 736.64l0-602.666667a32 32 0 0 1 64 0l0 602.666667a138.666667 138.666667 0 0 0 138.666666 138.666667L512 875.30666701a32 32 0 0 1 0 63.99999999l-74.666667 0a202.666667 202.666667 0 0 1-202.666666-202.666667z" fill="#fff" p-id="1321"></path></svg>